<mxfile host="app.diagrams.net" modified="2023-12-04T06:09:33.178Z" agent="Mozilla/5.0 (Windows NT 10.0; Win64; x64) AppleWebKit/537.36 (KHTML, like Gecko) Chrome/119.0.0.0 Safari/537.36" etag="FShyfIrRR2utJhPLt3V7" version="22.1.5" type="github">
  <diagram name="Page-1" id="WhD-RVdmiT3Y1AYnwMAB">
    <mxGraphModel dx="880" dy="446" grid="1" gridSize="10" guides="1" tooltips="1" connect="1" arrows="1" fold="1" page="1" pageScale="1" pageWidth="827" pageHeight="1169" math="0" shadow="0">
      <root>
        <mxCell id="0" />
        <mxCell id="1" parent="0" />
        <mxCell id="7FcnWLJ2OWy0p9-Xnf0V-18" style="edgeStyle=orthogonalEdgeStyle;rounded=0;orthogonalLoop=1;jettySize=auto;html=1;" edge="1" parent="1" source="7FcnWLJ2OWy0p9-Xnf0V-1">
          <mxGeometry relative="1" as="geometry">
            <mxPoint x="130" y="300" as="targetPoint" />
          </mxGeometry>
        </mxCell>
        <mxCell id="7FcnWLJ2OWy0p9-Xnf0V-1" value="&lt;br&gt;&lt;br&gt;&lt;br&gt;Candidat" style="shape=actor;whiteSpace=wrap;html=1;" vertex="1" parent="1">
          <mxGeometry y="330" width="80" height="90" as="geometry" />
        </mxCell>
        <mxCell id="7FcnWLJ2OWy0p9-Xnf0V-12" value="" style="edgeStyle=orthogonalEdgeStyle;rounded=0;orthogonalLoop=1;jettySize=auto;html=1;entryX=0.5;entryY=0;entryDx=0;entryDy=0;" edge="1" parent="1" source="7FcnWLJ2OWy0p9-Xnf0V-6" target="7FcnWLJ2OWy0p9-Xnf0V-14">
          <mxGeometry relative="1" as="geometry">
            <mxPoint x="244" y="120" as="targetPoint" />
          </mxGeometry>
        </mxCell>
        <mxCell id="7FcnWLJ2OWy0p9-Xnf0V-6" value="" style="image;html=1;image=img/lib/clip_art/networking/Ip_Camera_128x128.png" vertex="1" parent="1">
          <mxGeometry x="290" y="100" width="80" height="80" as="geometry" />
        </mxCell>
        <mxCell id="7FcnWLJ2OWy0p9-Xnf0V-11" style="edgeStyle=orthogonalEdgeStyle;rounded=0;orthogonalLoop=1;jettySize=auto;html=1;" edge="1" parent="1" source="7FcnWLJ2OWy0p9-Xnf0V-7" target="7FcnWLJ2OWy0p9-Xnf0V-14">
          <mxGeometry relative="1" as="geometry">
            <mxPoint x="180" y="184" as="targetPoint" />
          </mxGeometry>
        </mxCell>
        <mxCell id="7FcnWLJ2OWy0p9-Xnf0V-7" value="&lt;b&gt;&lt;font style=&quot;font-size: 14px;&quot;&gt;Lecteur Biométrique&lt;/font&gt;&lt;/b&gt;" style="fontColor=#0066CC;verticalAlign=top;verticalLabelPosition=bottom;labelPosition=center;align=center;html=1;outlineConnect=0;fillColor=#CCCCCC;strokeColor=#6881B3;gradientColor=none;gradientDirection=north;strokeWidth=2;shape=mxgraph.networks.biometric_reader;" vertex="1" parent="1">
          <mxGeometry x="120" y="210" width="40" height="66" as="geometry" />
        </mxCell>
        <mxCell id="7FcnWLJ2OWy0p9-Xnf0V-8" value="&lt;b&gt;&lt;font style=&quot;font-size: 16px;&quot;&gt;Serveur Examen TEF_TCF&lt;/font&gt;&lt;/b&gt;" style="image;html=1;image=img/lib/clip_art/networking/Cloud_Server_Private_128x128.png;imageBorder=default;dashed=1;dashPattern=1 2;" vertex="1" parent="1">
          <mxGeometry x="570" y="260" width="180" height="226" as="geometry" />
        </mxCell>
        <mxCell id="7FcnWLJ2OWy0p9-Xnf0V-13" value="&lt;b&gt;Camera de Contrôle&lt;/b&gt;" style="text;html=1;align=center;verticalAlign=middle;resizable=0;points=[];autosize=1;strokeColor=none;fillColor=none;" vertex="1" parent="1">
          <mxGeometry x="280" y="88" width="140" height="30" as="geometry" />
        </mxCell>
        <mxCell id="7FcnWLJ2OWy0p9-Xnf0V-14" value="" style="image;html=1;image=img/lib/clip_art/computers/Secure_System_128x128.png" vertex="1" parent="1">
          <mxGeometry x="230" y="250" width="120" height="130" as="geometry" />
        </mxCell>
        <mxCell id="7FcnWLJ2OWy0p9-Xnf0V-20" style="edgeStyle=orthogonalEdgeStyle;shape=link;rounded=0;orthogonalLoop=1;jettySize=auto;html=1;width=4;exitX=0;exitY=0.75;exitDx=0;exitDy=0;exitPerimeter=0;" edge="1" parent="1" source="7FcnWLJ2OWy0p9-Xnf0V-15">
          <mxGeometry relative="1" as="geometry">
            <mxPoint x="460" y="360" as="targetPoint" />
            <mxPoint x="620" y="180" as="sourcePoint" />
            <Array as="points">
              <mxPoint x="590" y="150" />
              <mxPoint x="481" y="150" />
              <mxPoint x="481" y="360" />
            </Array>
          </mxGeometry>
        </mxCell>
        <mxCell id="7FcnWLJ2OWy0p9-Xnf0V-21" value="&lt;b&gt;&lt;font style=&quot;font-size: 15px;&quot;&gt;Système espion&amp;nbsp;&lt;/font&gt;&lt;/b&gt;&lt;br&gt;&quot;&lt;i&gt;Arrêt Examen si changement d&#39;images &amp;amp; Alert&lt;/i&gt;&quot;" style="edgeLabel;html=1;align=center;verticalAlign=middle;resizable=0;points=[];" vertex="1" connectable="0" parent="7FcnWLJ2OWy0p9-Xnf0V-20">
          <mxGeometry x="0.019" y="1" relative="1" as="geometry">
            <mxPoint y="30" as="offset" />
          </mxGeometry>
        </mxCell>
        <mxCell id="7FcnWLJ2OWy0p9-Xnf0V-15" value="&lt;b&gt;&lt;font style=&quot;font-size: 14px;&quot; face=&quot;Verdana&quot;&gt;Système Comparaison &lt;br&gt;d&#39;images&lt;/font&gt;&lt;/b&gt;" style="sketch=0;points=[[0,0,0],[0.25,0,0],[0.5,0,0],[0.75,0,0],[1,0,0],[0,1,0],[0.25,1,0],[0.5,1,0],[0.75,1,0],[1,1,0],[0,0.25,0],[0,0.5,0],[0,0.75,0],[1,0.25,0],[1,0.5,0],[1,0.75,0]];points=[[0,0,0],[0.25,0,0],[0.5,0,0],[0.75,0,0],[1,0,0],[0,1,0],[0.25,1,0],[0.5,1,0],[0.75,1,0],[1,1,0],[0,0.25,0],[0,0.5,0],[0,0.75,0],[1,0.25,0],[1,0.5,0],[1,0.75,0]];outlineConnect=0;fontColor=#232F3E;fillColor=#E7157B;strokeColor=#ffffff;dashed=0;verticalLabelPosition=bottom;verticalAlign=top;align=center;html=1;fontSize=12;fontStyle=0;aspect=fixed;shape=mxgraph.aws4.resourceIcon;resIcon=mxgraph.aws4.systems_manager;" vertex="1" parent="1">
          <mxGeometry x="590" y="80" width="90" height="90" as="geometry" />
        </mxCell>
        <mxCell id="7FcnWLJ2OWy0p9-Xnf0V-16" style="edgeStyle=orthogonalEdgeStyle;rounded=0;orthogonalLoop=1;jettySize=auto;html=1;entryX=0.5;entryY=0;entryDx=0;entryDy=0;entryPerimeter=0;" edge="1" parent="1" source="7FcnWLJ2OWy0p9-Xnf0V-6" target="7FcnWLJ2OWy0p9-Xnf0V-15">
          <mxGeometry relative="1" as="geometry" />
        </mxCell>
        <mxCell id="7FcnWLJ2OWy0p9-Xnf0V-17" value="Envoi d&#39;envoi chaque minute" style="edgeLabel;html=1;align=center;verticalAlign=middle;resizable=0;points=[];" vertex="1" connectable="0" parent="7FcnWLJ2OWy0p9-Xnf0V-16">
          <mxGeometry x="-0.104" relative="1" as="geometry">
            <mxPoint as="offset" />
          </mxGeometry>
        </mxCell>
        <mxCell id="7FcnWLJ2OWy0p9-Xnf0V-19" style="edgeStyle=orthogonalEdgeStyle;rounded=0;orthogonalLoop=1;jettySize=auto;html=1;entryX=-0.022;entryY=0.708;entryDx=0;entryDy=0;entryPerimeter=0;" edge="1" parent="1" source="7FcnWLJ2OWy0p9-Xnf0V-14" target="7FcnWLJ2OWy0p9-Xnf0V-8">
          <mxGeometry relative="1" as="geometry" />
        </mxCell>
      </root>
    </mxGraphModel>
  </diagram>
</mxfile>
